<svg xmlns="http://www.w3.org/2000/svg" width="1280" height="640" font-family="system-ui, -apple-system, 'Segoe UI', sans-serif" viewBox="0 0 1280 640"><defs><linearGradient id="bg" x1="0" x2="1" y1="0" y2="1"><stop offset="0%" stop-color="#0b1220"/><stop offset="55%" stop-color="#0c2336"/><stop offset="100%" stop-color="#101a30"/></linearGradient><linearGradient id="glow" x1="0" x2="1" y1="0" y2="0"><stop offset="0%" stop-color="#38bdf8" stop-opacity=".16"/><stop offset="100%" stop-color="#818cf8" stop-opacity=".16"/></linearGradient><linearGradient id="bar" x1="0" x2="1" y1="0" y2="0"><stop offset="0%" stop-color="#38bdf8"/><stop offset="100%" stop-color="#818cf8"/></linearGradient><linearGradient id="chip" x1="0" x2="0" y1="0" y2="1"><stop offset="0%" stop-color="#f8fafc"/><stop offset="100%" stop-color="#e2e8f0"/></linearGradient></defs><rect width="1280" height="640" fill="url(#bg)"/><rect width="1280" height="300" x="0" y="0" fill="url(#glow)"/><rect width="250" height="180" x="88" y="120" fill="url(#chip)" rx="40"/><text x="213" y="226" fill="#0f172a" font-size="64" font-weight="800" text-anchor="middle">Continue</text><text x="400" y="200" fill="#f8fafc" font-size="76" font-weight="800">dsh-auto-continue</text><text x="402" y="258" fill="#94a3b8" font-size="32">DSH Web UI plugin — auto-continue interrupted requests</text><text x="402" y="316" fill="#7dd3fc" font-family="ui-monospace, SFMono-Regular, Menlo, monospace" font-size="24">turn/end · error | interrupted | max-tokens → prompt(&quot;Continue&quot;)</text><rect width="250" height="56" x="402" y="368" fill="#1e293b" stroke="#334155" rx="28"/><text x="527" y="403" fill="#e2e8f0" font-size="22" text-anchor="middle">auto-resume on failure</text><rect width="264" height="56" x="668" y="368" fill="#1e293b" stroke="#334155" rx="28"/><text x="800" y="403" fill="#e2e8f0" font-size="22" text-anchor="middle">GUI-configurable settings</text><rect width="240" height="56" x="948" y="368" fill="#1e293b" stroke="#334155" rx="28"/><text x="1068" y="403" fill="#e2e8f0" font-size="22" text-anchor="middle">dsh plugin add</text><text x="402" y="500" fill="#64748b" font-size="26">github.com/HsiangNianian/dsh-auto-continue</text><rect width="1280" height="12" x="0" y="628" fill="url(#bar)"/></svg>
